<mxfile host="Electron" modified="2024-06-09T03:52:50.602Z" agent="Mozilla/5.0 (Windows NT 10.0; Win64; x64) AppleWebKit/537.36 (KHTML, like Gecko) draw.io/21.8.2 Chrome/114.0.5735.289 Electron/25.8.1 Safari/537.36" etag="jfzagXyO08xO2raN7wC4" version="21.8.2" type="device" pages="4">
  <diagram name="Página-1" id="pNbNxJmcf-1fsDCe1-Rj">
    <mxGraphModel dx="864" dy="508" grid="1" gridSize="10" guides="1" tooltips="1" connect="1" arrows="1" fold="1" page="1" pageScale="1" pageWidth="850" pageHeight="1100" math="0" shadow="0">
      <root>
        <mxCell id="0" />
        <mxCell id="1" parent="0" />
        <mxCell id="mVmsByqdwXEIUs5iGJFM-9" style="edgeStyle=orthogonalEdgeStyle;rounded=0;orthogonalLoop=1;jettySize=auto;html=1;" parent="1" source="mVmsByqdwXEIUs5iGJFM-1" target="mVmsByqdwXEIUs5iGJFM-6" edge="1">
          <mxGeometry relative="1" as="geometry" />
        </mxCell>
        <mxCell id="mVmsByqdwXEIUs5iGJFM-10" style="edgeStyle=orthogonalEdgeStyle;rounded=0;orthogonalLoop=1;jettySize=auto;html=1;" parent="1" source="mVmsByqdwXEIUs5iGJFM-1" target="mVmsByqdwXEIUs5iGJFM-7" edge="1">
          <mxGeometry relative="1" as="geometry" />
        </mxCell>
        <mxCell id="mVmsByqdwXEIUs5iGJFM-11" style="edgeStyle=orthogonalEdgeStyle;rounded=0;orthogonalLoop=1;jettySize=auto;html=1;" parent="1" source="mVmsByqdwXEIUs5iGJFM-1" target="mVmsByqdwXEIUs5iGJFM-5" edge="1">
          <mxGeometry relative="1" as="geometry">
            <Array as="points">
              <mxPoint x="420" y="330" />
              <mxPoint x="180" y="330" />
            </Array>
          </mxGeometry>
        </mxCell>
        <mxCell id="mVmsByqdwXEIUs5iGJFM-13" style="edgeStyle=orthogonalEdgeStyle;rounded=0;orthogonalLoop=1;jettySize=auto;html=1;" parent="1" source="mVmsByqdwXEIUs5iGJFM-1" target="mVmsByqdwXEIUs5iGJFM-8" edge="1">
          <mxGeometry relative="1" as="geometry">
            <Array as="points">
              <mxPoint x="420" y="330" />
              <mxPoint x="660" y="330" />
            </Array>
          </mxGeometry>
        </mxCell>
        <mxCell id="mVmsByqdwXEIUs5iGJFM-1" value="&lt;font face=&quot;Times New Roman&quot;&gt;Lógica del negocio&lt;/font&gt;" style="rounded=0;whiteSpace=wrap;html=1;" parent="1" vertex="1">
          <mxGeometry x="360" y="240" width="120" height="60" as="geometry" />
        </mxCell>
        <mxCell id="mVmsByqdwXEIUs5iGJFM-5" value="&lt;font face=&quot;Times New Roman&quot;&gt;Lógica del cliente&lt;/font&gt;" style="rounded=0;whiteSpace=wrap;html=1;" parent="1" vertex="1">
          <mxGeometry x="120" y="360" width="120" height="60" as="geometry" />
        </mxCell>
        <mxCell id="mVmsByqdwXEIUs5iGJFM-6" value="&lt;font face=&quot;Times New Roman&quot;&gt;Lógica del producto&lt;/font&gt;" style="rounded=0;whiteSpace=wrap;html=1;" parent="1" vertex="1">
          <mxGeometry x="280" y="360" width="120" height="60" as="geometry" />
        </mxCell>
        <mxCell id="mVmsByqdwXEIUs5iGJFM-7" value="&lt;font face=&quot;Times New Roman&quot;&gt;Lógica económica&lt;/font&gt;" style="rounded=0;whiteSpace=wrap;html=1;" parent="1" vertex="1">
          <mxGeometry x="440" y="360" width="120" height="60" as="geometry" />
        </mxCell>
        <mxCell id="mVmsByqdwXEIUs5iGJFM-8" value="&lt;font face=&quot;Times New Roman&quot;&gt;Lógica estructural&lt;/font&gt;" style="rounded=0;whiteSpace=wrap;html=1;" parent="1" vertex="1">
          <mxGeometry x="600" y="360" width="120" height="60" as="geometry" />
        </mxCell>
        <mxCell id="mVmsByqdwXEIUs5iGJFM-15" value="&lt;font style=&quot;font-size: 10px;&quot; face=&quot;Times New Roman&quot;&gt;Siempre primero el&amp;nbsp;&lt;br&gt;cliente&lt;br&gt;&lt;/font&gt;" style="ellipse;shape=cloud;whiteSpace=wrap;html=1;" parent="1" vertex="1">
          <mxGeometry x="120" y="240" width="120" height="80" as="geometry" />
        </mxCell>
      </root>
    </mxGraphModel>
  </diagram>
  <diagram id="GFouRTmseloQcSVRY6tM" name="Página-2">
    <mxGraphModel dx="864" dy="508" grid="1" gridSize="10" guides="1" tooltips="1" connect="1" arrows="1" fold="1" page="1" pageScale="1" pageWidth="850" pageHeight="1100" math="0" shadow="0">
      <root>
        <mxCell id="0" />
        <mxCell id="1" parent="0" />
        <mxCell id="ASm8IrkW4_wdi3sztk9I-1" style="edgeStyle=orthogonalEdgeStyle;rounded=0;orthogonalLoop=1;jettySize=auto;html=1;" edge="1" parent="1" source="jg0liWOyvDaA42ke8-ui-1" target="OGkEqdfAj6cq_4v7bpM1-1">
          <mxGeometry relative="1" as="geometry" />
        </mxCell>
        <mxCell id="jg0liWOyvDaA42ke8-ui-1" value="&lt;font face=&quot;Times New Roman&quot;&gt;Lógica del negocio&lt;/font&gt;" style="rounded=0;whiteSpace=wrap;html=1;" vertex="1" parent="1">
          <mxGeometry x="360" y="250" width="120" height="60" as="geometry" />
        </mxCell>
        <mxCell id="OGkEqdfAj6cq_4v7bpM1-1" value="&lt;font face=&quot;Times New Roman&quot;&gt;Lógica del cliente&lt;/font&gt;" style="rounded=0;whiteSpace=wrap;html=1;" vertex="1" parent="1">
          <mxGeometry x="360" y="370" width="120" height="60" as="geometry" />
        </mxCell>
        <mxCell id="ASm8IrkW4_wdi3sztk9I-3" value="&lt;ul style=&quot;border-color: var(--border-color);&quot;&gt;&lt;li style=&quot;border-color: var(--border-color);&quot;&gt;&lt;font style=&quot;border-color: var(--border-color); font-size: 12px;&quot; face=&quot;Times New Roman&quot;&gt;Enfoque en el nicho&lt;/font&gt;&lt;/li&gt;&lt;li style=&quot;border-color: var(--border-color);&quot;&gt;&lt;font style=&quot;border-color: var(--border-color); font-size: 12px;&quot; face=&quot;Times New Roman&quot;&gt;Base de clientes selecta&lt;/font&gt;&lt;/li&gt;&lt;li style=&quot;border-color: var(--border-color);&quot;&gt;&lt;font style=&quot;border-color: var(--border-color); font-size: 12px;&quot; face=&quot;Times New Roman&quot;&gt;Amplia gama de productos&lt;/font&gt;&lt;/li&gt;&lt;li style=&quot;border-color: var(--border-color);&quot;&gt;&lt;font style=&quot;border-color: var(--border-color); font-size: 12px;&quot; face=&quot;Times New Roman&quot;&gt;Amplia gama de clientes&lt;/font&gt;&lt;/li&gt;&lt;li style=&quot;border-color: var(--border-color);&quot;&gt;&lt;font style=&quot;border-color: var(--border-color); font-size: 12px;&quot; face=&quot;Times New Roman&quot;&gt;Producctos de acceso al cliente&lt;/font&gt;&lt;/li&gt;&lt;li style=&quot;border-color: var(--border-color);&quot;&gt;&lt;font style=&quot;border-color: var(--border-color); font-size: 12px;&quot; face=&quot;Times New Roman&quot;&gt;Alianzas&lt;/font&gt;&lt;/li&gt;&lt;/ul&gt;" style="rounded=0;whiteSpace=wrap;html=1;align=left;" vertex="1" parent="1">
          <mxGeometry x="310" y="440" width="220" height="100" as="geometry" />
        </mxCell>
      </root>
    </mxGraphModel>
  </diagram>
  <diagram id="ftVRpJKuDypHVzpdboBP" name="Página-3">
    <mxGraphModel dx="1728" dy="1016" grid="1" gridSize="10" guides="1" tooltips="1" connect="1" arrows="1" fold="1" page="1" pageScale="1" pageWidth="850" pageHeight="1100" math="0" shadow="0">
      <root>
        <mxCell id="0" />
        <mxCell id="1" parent="0" />
        <mxCell id="5BGueNwNhTq-H0b1qB3h-8" value="&lt;font color=&quot;#000066&quot; style=&quot;font-size: 10px;&quot; face=&quot;Times New Roman&quot;&gt;Servicio&lt;/font&gt;" style="rounded=0;whiteSpace=wrap;html=1;fillColor=#e1d5e7;strokeColor=#9673a6;" vertex="1" parent="1">
          <mxGeometry x="400" y="90" width="60" height="90" as="geometry" />
        </mxCell>
        <mxCell id="5BGueNwNhTq-H0b1qB3h-10" value="" style="shape=offPageConnector;whiteSpace=wrap;html=1;rotation=-90;" vertex="1" parent="1">
          <mxGeometry x="380" y="170" width="240" height="80" as="geometry" />
        </mxCell>
        <mxCell id="5BGueNwNhTq-H0b1qB3h-11" value="&lt;font color=&quot;#000066&quot; style=&quot;font-size: 10px;&quot; face=&quot;Times New Roman&quot;&gt;Marketing y ventas&lt;/font&gt;" style="rounded=0;whiteSpace=wrap;html=1;fillColor=#fff2cc;strokeColor=#d6b656;" vertex="1" parent="1">
          <mxGeometry x="340" y="90" width="60" height="90" as="geometry" />
        </mxCell>
        <mxCell id="5BGueNwNhTq-H0b1qB3h-12" value="&lt;font color=&quot;#000066&quot; style=&quot;font-size: 10px;&quot; face=&quot;Times New Roman&quot;&gt;Distribución y logistica de salida&lt;/font&gt;" style="rounded=0;whiteSpace=wrap;html=1;fillColor=#ffe6cc;strokeColor=#d79b00;" vertex="1" parent="1">
          <mxGeometry x="280" y="90" width="60" height="90" as="geometry" />
        </mxCell>
        <mxCell id="5BGueNwNhTq-H0b1qB3h-13" value="&lt;font color=&quot;#000066&quot; style=&quot;font-size: 10px;&quot; face=&quot;Times New Roman&quot;&gt;Operaciones&lt;/font&gt;" style="rounded=0;whiteSpace=wrap;html=1;fillColor=#d5e8d4;strokeColor=#82b366;" vertex="1" parent="1">
          <mxGeometry x="220" y="90" width="60" height="90" as="geometry" />
        </mxCell>
        <mxCell id="5BGueNwNhTq-H0b1qB3h-14" value="&lt;font color=&quot;#000066&quot; style=&quot;font-size: 10px;&quot; face=&quot;Times New Roman&quot;&gt;Suministros comprados y logistica de entrada&lt;/font&gt;" style="rounded=0;whiteSpace=wrap;html=1;fillColor=#dae8fc;strokeColor=#6c8ebf;" vertex="1" parent="1">
          <mxGeometry x="160" y="90" width="60" height="90" as="geometry" />
        </mxCell>
        <mxCell id="5BGueNwNhTq-H0b1qB3h-15" value="&lt;font face=&quot;Times New Roman&quot; style=&quot;font-size: 10px;&quot;&gt;Infraestructura de la empresa&lt;/font&gt;" style="rounded=0;whiteSpace=wrap;html=1;fontColor=#FF0000;" vertex="1" parent="1">
          <mxGeometry x="160" y="270" width="300" height="30" as="geometry" />
        </mxCell>
        <mxCell id="5BGueNwNhTq-H0b1qB3h-16" value="&lt;font face=&quot;Times New Roman&quot; style=&quot;font-size: 10px;&quot;&gt;Administración general&lt;/font&gt;" style="rounded=0;whiteSpace=wrap;html=1;fontColor=#FF0000;" vertex="1" parent="1">
          <mxGeometry x="160" y="300" width="300" height="30" as="geometry" />
        </mxCell>
        <mxCell id="5BGueNwNhTq-H0b1qB3h-17" value="&lt;font face=&quot;Times New Roman&quot; style=&quot;font-size: 10px;&quot;&gt;Abastecimiento&lt;/font&gt;" style="rounded=0;whiteSpace=wrap;html=1;fontColor=#FF0000;" vertex="1" parent="1">
          <mxGeometry x="160" y="240" width="300" height="30" as="geometry" />
        </mxCell>
        <mxCell id="5BGueNwNhTq-H0b1qB3h-18" value="&lt;font face=&quot;Times New Roman&quot; style=&quot;font-size: 10px;&quot;&gt;Administración de los recursos humanos&lt;/font&gt;" style="rounded=0;whiteSpace=wrap;html=1;fontColor=#FF0000;" vertex="1" parent="1">
          <mxGeometry x="160" y="210" width="300" height="30" as="geometry" />
        </mxCell>
        <mxCell id="5BGueNwNhTq-H0b1qB3h-19" value="&lt;font face=&quot;Times New Roman&quot; style=&quot;font-size: 10px;&quot;&gt;Investigación y desarrollo de productos, tecnología y desarrollo de sistemas&lt;/font&gt;" style="rounded=0;whiteSpace=wrap;html=1;fontColor=#FF0000;" vertex="1" parent="1">
          <mxGeometry x="160" y="180" width="300" height="30" as="geometry" />
        </mxCell>
        <mxCell id="5BGueNwNhTq-H0b1qB3h-20" value="&lt;font style=&quot;font-size: 10px;&quot; face=&quot;Times New Roman&quot;&gt;Margen de&lt;br style=&quot;border-color: var(--border-color); background-color: rgb(255, 255, 255);&quot;&gt;&lt;span style=&quot;background-color: rgb(255, 255, 255);&quot;&gt;utilidad&lt;/span&gt;&lt;/font&gt;" style="text;strokeColor=none;align=center;fillColor=none;html=1;verticalAlign=middle;whiteSpace=wrap;rounded=0;" vertex="1" parent="1">
          <mxGeometry x="475" y="195" width="50" height="30" as="geometry" />
        </mxCell>
        <mxCell id="5BGueNwNhTq-H0b1qB3h-21" value="&lt;font color=&quot;#000066&quot; face=&quot;Times New Roman&quot;&gt;&lt;span style=&quot;font-size: 10px;&quot;&gt;Principales Actividades y Costos&lt;/span&gt;&lt;/font&gt;" style="text;strokeColor=none;align=center;fillColor=none;html=1;verticalAlign=middle;whiteSpace=wrap;rounded=0;" vertex="1" parent="1">
          <mxGeometry x="100" y="110" width="50" height="50" as="geometry" />
        </mxCell>
        <mxCell id="5BGueNwNhTq-H0b1qB3h-22" value="&lt;font color=&quot;#ff0000&quot; face=&quot;Times New Roman&quot;&gt;&lt;span style=&quot;font-size: 10px;&quot;&gt;Actividades y Costos de apoyo&lt;/span&gt;&lt;/font&gt;" style="text;strokeColor=none;align=center;fillColor=none;html=1;verticalAlign=middle;whiteSpace=wrap;rounded=0;" vertex="1" parent="1">
          <mxGeometry x="100" y="230" width="50" height="50" as="geometry" />
        </mxCell>
      </root>
    </mxGraphModel>
  </diagram>
  <diagram id="G2C9b8CuQ07-nJjOkK4P" name="Página-4">
    <mxGraphModel dx="864" dy="508" grid="1" gridSize="10" guides="1" tooltips="1" connect="1" arrows="1" fold="1" page="1" pageScale="1" pageWidth="850" pageHeight="1100" math="0" shadow="0">
      <root>
        <mxCell id="0" />
        <mxCell id="1" parent="0" />
        <mxCell id="ZSM-7Bk67beljWb7e7nK-1" value="&lt;font face=&quot;Times New Roman&quot;&gt;&lt;b&gt;Análisis estratégico&lt;/b&gt;&lt;/font&gt;" style="rounded=0;whiteSpace=wrap;html=1;fillColor=#f8cecc;strokeColor=#b85450;" parent="1" vertex="1">
          <mxGeometry x="380" y="210" width="120" height="60" as="geometry" />
        </mxCell>
        <mxCell id="ZSM-7Bk67beljWb7e7nK-2" value="&lt;font face=&quot;Times New Roman&quot;&gt;Elección estratégica&lt;/font&gt;" style="rounded=0;whiteSpace=wrap;html=1;fillColor=#f8cecc;strokeColor=#b85450;" parent="1" vertex="1">
          <mxGeometry x="220" y="370" width="120" height="60" as="geometry" />
        </mxCell>
        <mxCell id="ZSM-7Bk67beljWb7e7nK-3" value="&lt;font face=&quot;Times New Roman&quot;&gt;Implementación de estrategia&lt;/font&gt;" style="rounded=0;whiteSpace=wrap;html=1;fillColor=#f8cecc;strokeColor=#b85450;" parent="1" vertex="1">
          <mxGeometry x="540" y="370" width="120" height="60" as="geometry" />
        </mxCell>
        <mxCell id="ZSM-7Bk67beljWb7e7nK-4" value="" style="endArrow=classic;startArrow=classic;html=1;rounded=0;" parent="1" edge="1">
          <mxGeometry width="50" height="50" relative="1" as="geometry">
            <mxPoint x="340" y="360" as="sourcePoint" />
            <mxPoint x="380" y="280" as="targetPoint" />
          </mxGeometry>
        </mxCell>
        <mxCell id="ZSM-7Bk67beljWb7e7nK-6" value="" style="endArrow=classic;startArrow=classic;html=1;rounded=0;" parent="1" edge="1">
          <mxGeometry width="50" height="50" relative="1" as="geometry">
            <mxPoint x="500" y="400" as="sourcePoint" />
            <mxPoint x="380" y="400" as="targetPoint" />
          </mxGeometry>
        </mxCell>
        <mxCell id="ZSM-7Bk67beljWb7e7nK-7" value="" style="endArrow=classic;startArrow=classic;html=1;rounded=0;" parent="1" edge="1">
          <mxGeometry width="50" height="50" relative="1" as="geometry">
            <mxPoint x="540" y="360" as="sourcePoint" />
            <mxPoint x="500" y="280" as="targetPoint" />
          </mxGeometry>
        </mxCell>
        <mxCell id="ZSM-7Bk67beljWb7e7nK-8" value="&lt;font face=&quot;Times New Roman&quot;&gt;Entorno&lt;/font&gt;" style="rounded=0;whiteSpace=wrap;html=1;" parent="1" vertex="1">
          <mxGeometry x="270" y="120" width="90" height="50" as="geometry" />
        </mxCell>
        <mxCell id="ZSM-7Bk67beljWb7e7nK-9" value="&lt;font face=&quot;Times New Roman&quot;&gt;Expectativas y propósitos&lt;/font&gt;" style="rounded=0;whiteSpace=wrap;html=1;" parent="1" vertex="1">
          <mxGeometry x="395" y="120" width="90" height="50" as="geometry" />
        </mxCell>
        <mxCell id="ZSM-7Bk67beljWb7e7nK-10" value="&lt;font face=&quot;Times New Roman&quot;&gt;Recursos, competencias, capacidades&lt;/font&gt;" style="rounded=0;whiteSpace=wrap;html=1;" parent="1" vertex="1">
          <mxGeometry x="520" y="120" width="90" height="50" as="geometry" />
        </mxCell>
        <mxCell id="ZSM-7Bk67beljWb7e7nK-12" value="" style="endArrow=none;html=1;rounded=0;entryX=1;entryY=1;entryDx=0;entryDy=0;exitX=0;exitY=0;exitDx=0;exitDy=0;" parent="1" source="ZSM-7Bk67beljWb7e7nK-1" target="ZSM-7Bk67beljWb7e7nK-8" edge="1">
          <mxGeometry width="50" height="50" relative="1" as="geometry">
            <mxPoint x="300" y="260" as="sourcePoint" />
            <mxPoint x="350" y="210" as="targetPoint" />
          </mxGeometry>
        </mxCell>
        <mxCell id="ZSM-7Bk67beljWb7e7nK-13" value="" style="endArrow=none;html=1;rounded=0;exitX=0;exitY=0;exitDx=0;exitDy=0;entryX=0;entryY=1;entryDx=0;entryDy=0;" parent="1" target="ZSM-7Bk67beljWb7e7nK-10" edge="1">
          <mxGeometry width="50" height="50" relative="1" as="geometry">
            <mxPoint x="500" y="210" as="sourcePoint" />
            <mxPoint x="520" y="180" as="targetPoint" />
          </mxGeometry>
        </mxCell>
        <mxCell id="ZSM-7Bk67beljWb7e7nK-14" value="" style="endArrow=none;html=1;rounded=0;entryX=0.5;entryY=1;entryDx=0;entryDy=0;" parent="1" target="ZSM-7Bk67beljWb7e7nK-9" edge="1">
          <mxGeometry width="50" height="50" relative="1" as="geometry">
            <mxPoint x="440" y="210" as="sourcePoint" />
            <mxPoint x="490" y="190" as="targetPoint" />
          </mxGeometry>
        </mxCell>
        <mxCell id="ZSM-7Bk67beljWb7e7nK-15" value="&lt;font face=&quot;Times New Roman&quot;&gt;Bases de la elección estrategica&lt;/font&gt;" style="rounded=0;whiteSpace=wrap;html=1;" parent="1" vertex="1">
          <mxGeometry x="110" y="375" width="90" height="50" as="geometry" />
        </mxCell>
        <mxCell id="ZSM-7Bk67beljWb7e7nK-16" value="&lt;font face=&quot;Times New Roman&quot;&gt;Opciones estratégicas&lt;/font&gt;" style="rounded=0;whiteSpace=wrap;html=1;" parent="1" vertex="1">
          <mxGeometry x="110" y="450" width="90" height="50" as="geometry" />
        </mxCell>
        <mxCell id="ZSM-7Bk67beljWb7e7nK-17" value="&lt;font face=&quot;Times New Roman&quot;&gt;Evaluación y selección de estrategias&lt;/font&gt;" style="rounded=0;whiteSpace=wrap;html=1;" parent="1" vertex="1">
          <mxGeometry x="235" y="450" width="90" height="50" as="geometry" />
        </mxCell>
        <mxCell id="ZSM-7Bk67beljWb7e7nK-18" value="&lt;font face=&quot;Times New Roman&quot;&gt;Gestión del cambio estratégico&lt;/font&gt;" style="rounded=0;whiteSpace=wrap;html=1;" parent="1" vertex="1">
          <mxGeometry x="555" y="450" width="90" height="50" as="geometry" />
        </mxCell>
        <mxCell id="ZSM-7Bk67beljWb7e7nK-19" value="&lt;font face=&quot;Times New Roman&quot;&gt;Asignación y control de recursos&lt;/font&gt;" style="rounded=0;whiteSpace=wrap;html=1;" parent="1" vertex="1">
          <mxGeometry x="680" y="450" width="90" height="50" as="geometry" />
        </mxCell>
        <mxCell id="ZSM-7Bk67beljWb7e7nK-20" value="&lt;font face=&quot;Times New Roman&quot;&gt;Estructura y diseño organizacional&lt;/font&gt;" style="rounded=0;whiteSpace=wrap;html=1;" parent="1" vertex="1">
          <mxGeometry x="680" y="375" width="90" height="50" as="geometry" />
        </mxCell>
        <mxCell id="ZSM-7Bk67beljWb7e7nK-21" value="" style="endArrow=none;html=1;rounded=0;exitX=1;exitY=0.5;exitDx=0;exitDy=0;" parent="1" source="ZSM-7Bk67beljWb7e7nK-15" edge="1">
          <mxGeometry width="50" height="50" relative="1" as="geometry">
            <mxPoint x="170" y="450" as="sourcePoint" />
            <mxPoint x="220" y="400" as="targetPoint" />
          </mxGeometry>
        </mxCell>
        <mxCell id="ZSM-7Bk67beljWb7e7nK-22" value="" style="endArrow=none;html=1;rounded=0;exitX=1;exitY=0;exitDx=0;exitDy=0;entryX=0;entryY=1;entryDx=0;entryDy=0;" parent="1" source="ZSM-7Bk67beljWb7e7nK-16" target="ZSM-7Bk67beljWb7e7nK-2" edge="1">
          <mxGeometry width="50" height="50" relative="1" as="geometry">
            <mxPoint x="190" y="470" as="sourcePoint" />
            <mxPoint x="240" y="420" as="targetPoint" />
          </mxGeometry>
        </mxCell>
        <mxCell id="ZSM-7Bk67beljWb7e7nK-26" value="" style="endArrow=none;html=1;rounded=0;entryX=0.5;entryY=1;entryDx=0;entryDy=0;exitX=0.5;exitY=0;exitDx=0;exitDy=0;" parent="1" source="ZSM-7Bk67beljWb7e7nK-17" target="ZSM-7Bk67beljWb7e7nK-2" edge="1">
          <mxGeometry width="50" height="50" relative="1" as="geometry">
            <mxPoint x="200" y="510" as="sourcePoint" />
            <mxPoint x="250" y="460" as="targetPoint" />
          </mxGeometry>
        </mxCell>
        <mxCell id="ZSM-7Bk67beljWb7e7nK-27" value="" style="endArrow=none;html=1;rounded=0;entryX=0.5;entryY=1;entryDx=0;entryDy=0;exitX=0.5;exitY=0;exitDx=0;exitDy=0;" parent="1" source="ZSM-7Bk67beljWb7e7nK-18" target="ZSM-7Bk67beljWb7e7nK-3" edge="1">
          <mxGeometry width="50" height="50" relative="1" as="geometry">
            <mxPoint x="580" y="490" as="sourcePoint" />
            <mxPoint x="630" y="440" as="targetPoint" />
          </mxGeometry>
        </mxCell>
        <mxCell id="ZSM-7Bk67beljWb7e7nK-28" value="" style="endArrow=none;html=1;rounded=0;entryX=1;entryY=1;entryDx=0;entryDy=0;exitX=0;exitY=0;exitDx=0;exitDy=0;" parent="1" source="ZSM-7Bk67beljWb7e7nK-19" target="ZSM-7Bk67beljWb7e7nK-3" edge="1">
          <mxGeometry width="50" height="50" relative="1" as="geometry">
            <mxPoint x="660" y="480" as="sourcePoint" />
            <mxPoint x="710" y="430" as="targetPoint" />
          </mxGeometry>
        </mxCell>
        <mxCell id="ZSM-7Bk67beljWb7e7nK-29" value="" style="endArrow=none;html=1;rounded=0;exitX=1;exitY=0.5;exitDx=0;exitDy=0;entryX=0;entryY=0.5;entryDx=0;entryDy=0;" parent="1" source="ZSM-7Bk67beljWb7e7nK-3" target="ZSM-7Bk67beljWb7e7nK-20" edge="1">
          <mxGeometry width="50" height="50" relative="1" as="geometry">
            <mxPoint x="670" y="430" as="sourcePoint" />
            <mxPoint x="720" y="380" as="targetPoint" />
          </mxGeometry>
        </mxCell>
      </root>
    </mxGraphModel>
  </diagram>
</mxfile>
